<mxfile host="app.diagrams.net" modified="2023-09-11T16:03:14.600Z" agent="Mozilla/5.0 (Windows NT 10.0; Win64; x64) AppleWebKit/537.36 (KHTML, like Gecko) Chrome/116.0.0.0 Safari/537.36 Edg/116.0.1938.76" etag="4_rfkvqeY7efvhdHW_Gl" version="21.7.4" type="device">
  <diagram id="C5RBs43oDa-KdzZeNtuy" name="Page-1">
    <mxGraphModel dx="746" dy="1872" grid="1" gridSize="10" guides="1" tooltips="1" connect="1" arrows="1" fold="1" page="1" pageScale="1" pageWidth="827" pageHeight="1169" math="0" shadow="0">
      <root>
        <mxCell id="WIyWlLk6GJQsqaUBKTNV-0" />
        <mxCell id="WIyWlLk6GJQsqaUBKTNV-1" parent="WIyWlLk6GJQsqaUBKTNV-0" />
        <mxCell id="pIUg82QrMssPbng2q3d7-1" value="" style="group;strokeColor=default;" parent="WIyWlLk6GJQsqaUBKTNV-1" vertex="1" connectable="0">
          <mxGeometry x="70" y="-1080" width="190" height="120" as="geometry" />
        </mxCell>
        <mxCell id="pIUg82QrMssPbng2q3d7-2" value="CATEGORIA" style="swimlane;fontStyle=0;childLayout=stackLayout;horizontal=1;startSize=30;horizontalStack=0;resizeParent=1;resizeParentMax=0;resizeLast=0;collapsible=1;marginBottom=0;whiteSpace=wrap;html=1;" parent="pIUg82QrMssPbng2q3d7-1" vertex="1">
          <mxGeometry width="190" height="70" as="geometry" />
        </mxCell>
        <mxCell id="pIUg82QrMssPbng2q3d7-8" value="&amp;nbsp; &amp;nbsp;PK&amp;nbsp; &amp;nbsp; &amp;nbsp;id&amp;nbsp; &amp;nbsp; &amp;nbsp; &amp;nbsp; &amp;nbsp; &amp;nbsp; &amp;nbsp; &amp;nbsp; &amp;nbsp; &amp;nbsp; &amp;nbsp; &amp;nbsp; &amp;nbsp; &amp;nbsp; &amp;nbsp; &amp;nbsp; &amp;nbsp; &amp;nbsp; &amp;nbsp; &amp;nbsp;" style="text;html=1;strokeColor=none;fillColor=none;align=center;verticalAlign=middle;whiteSpace=wrap;rounded=0;" parent="pIUg82QrMssPbng2q3d7-2" vertex="1">
          <mxGeometry y="30" width="190" height="40" as="geometry" />
        </mxCell>
        <mxCell id="pIUg82QrMssPbng2q3d7-3" value="nombre&amp;nbsp; &amp;nbsp; &amp;nbsp; &amp;nbsp; &amp;nbsp; &amp;nbsp; &amp;nbsp; &amp;nbsp;&amp;nbsp;" style="text;html=1;strokeColor=none;fillColor=none;align=center;verticalAlign=middle;whiteSpace=wrap;rounded=0;shadow=1;" parent="pIUg82QrMssPbng2q3d7-1" vertex="1">
          <mxGeometry y="70.00324675324676" width="190" height="26.493506493506498" as="geometry" />
        </mxCell>
        <mxCell id="pIUg82QrMssPbng2q3d7-6" value="" style="endArrow=none;html=1;rounded=0;exitX=0.207;exitY=1.033;exitDx=0;exitDy=0;exitPerimeter=0;" parent="pIUg82QrMssPbng2q3d7-1" edge="1">
          <mxGeometry width="50" height="50" relative="1" as="geometry">
            <mxPoint x="39.33000000000004" y="120.7714285714285" as="sourcePoint" />
            <mxPoint x="40.714285714285715" y="23.376623376623378" as="targetPoint" />
          </mxGeometry>
        </mxCell>
        <mxCell id="pIUg82QrMssPbng2q3d7-9" value="" style="group;strokeColor=default;" parent="WIyWlLk6GJQsqaUBKTNV-1" vertex="1" connectable="0">
          <mxGeometry x="440" y="-1070" width="200" height="270" as="geometry" />
        </mxCell>
        <mxCell id="pIUg82QrMssPbng2q3d7-10" value="PRODUCTO" style="swimlane;fontStyle=0;childLayout=stackLayout;horizontal=1;startSize=30;horizontalStack=0;resizeParent=1;resizeParentMax=0;resizeLast=0;collapsible=1;marginBottom=0;whiteSpace=wrap;html=1;" parent="pIUg82QrMssPbng2q3d7-9" vertex="1">
          <mxGeometry width="200" height="78.42" as="geometry" />
        </mxCell>
        <mxCell id="pIUg82QrMssPbng2q3d7-11" value="&amp;nbsp; &amp;nbsp;PK&amp;nbsp; &amp;nbsp; &amp;nbsp;id&amp;nbsp; &amp;nbsp; &amp;nbsp; &amp;nbsp; &amp;nbsp; &amp;nbsp; &amp;nbsp; &amp;nbsp; &amp;nbsp; &amp;nbsp; &amp;nbsp; &amp;nbsp; &amp;nbsp; &amp;nbsp; &amp;nbsp; &amp;nbsp; &amp;nbsp; &amp;nbsp; &amp;nbsp; &amp;nbsp;" style="text;html=1;strokeColor=none;fillColor=none;align=center;verticalAlign=middle;whiteSpace=wrap;rounded=0;" parent="pIUg82QrMssPbng2q3d7-10" vertex="1">
          <mxGeometry y="30" width="200" height="48.42" as="geometry" />
        </mxCell>
        <mxCell id="pIUg82QrMssPbng2q3d7-12" value="nombre&amp;nbsp; &amp;nbsp; &amp;nbsp; &amp;nbsp; &amp;nbsp; &amp;nbsp; &amp;nbsp; &amp;nbsp;&amp;nbsp;" style="text;html=1;strokeColor=none;fillColor=none;align=center;verticalAlign=middle;whiteSpace=wrap;rounded=0;shadow=1;" parent="pIUg82QrMssPbng2q3d7-9" vertex="1">
          <mxGeometry y="84.74077238550923" width="190" height="32.07108680792892" as="geometry" />
        </mxCell>
        <mxCell id="pIUg82QrMssPbng2q3d7-13" value="" style="endArrow=none;html=1;rounded=0;exitX=0.25;exitY=1;exitDx=0;exitDy=0;" parent="pIUg82QrMssPbng2q3d7-9" edge="1" source="pIUg82QrMssPbng2q3d7-23">
          <mxGeometry width="50" height="50" relative="1" as="geometry">
            <mxPoint x="41" y="230" as="sourcePoint" />
            <mxPoint x="40.714285714285715" y="28.298017771701986" as="targetPoint" />
          </mxGeometry>
        </mxCell>
        <mxCell id="pIUg82QrMssPbng2q3d7-21" value="marca&amp;nbsp; &amp;nbsp; &amp;nbsp; &amp;nbsp; &amp;nbsp; &amp;nbsp; &amp;nbsp; &amp;nbsp; &amp;nbsp; &amp;nbsp; &amp;nbsp; &amp;nbsp; &amp;nbsp; &amp;nbsp; &amp;nbsp; &amp;nbsp;&amp;nbsp;" style="text;html=1;strokeColor=none;fillColor=none;align=center;verticalAlign=middle;whiteSpace=wrap;rounded=0;" parent="pIUg82QrMssPbng2q3d7-9" vertex="1">
          <mxGeometry x="40" y="133.1578947368421" width="150" height="48.421052631578945" as="geometry" />
        </mxCell>
        <mxCell id="pIUg82QrMssPbng2q3d7-22" value="categoria_id&amp;nbsp; &amp;nbsp; &amp;nbsp; &amp;nbsp; &amp;nbsp; &amp;nbsp; &amp;nbsp; &amp;nbsp; &amp;nbsp; &amp;nbsp; &amp;nbsp; &amp;nbsp;&amp;nbsp;" style="text;html=1;strokeColor=none;fillColor=none;align=center;verticalAlign=middle;whiteSpace=wrap;rounded=0;" parent="pIUg82QrMssPbng2q3d7-9" vertex="1">
          <mxGeometry x="40" y="181.57894736842104" width="150" height="48.421052631578945" as="geometry" />
        </mxCell>
        <mxCell id="pIUg82QrMssPbng2q3d7-23" value="precio_unitario" style="text;html=1;strokeColor=none;fillColor=none;align=center;verticalAlign=middle;whiteSpace=wrap;rounded=0;" parent="pIUg82QrMssPbng2q3d7-9" vertex="1">
          <mxGeometry y="230" width="160" height="40" as="geometry" />
        </mxCell>
        <mxCell id="66l2fMA6IXhAfc1q5ibX-1" value="FK1" style="text;html=1;strokeColor=none;fillColor=none;align=center;verticalAlign=middle;whiteSpace=wrap;rounded=0;" vertex="1" parent="pIUg82QrMssPbng2q3d7-9">
          <mxGeometry x="-10" y="190.78999999999996" width="60" height="30" as="geometry" />
        </mxCell>
        <mxCell id="66l2fMA6IXhAfc1q5ibX-2" value="" style="group;strokeColor=default;" vertex="1" connectable="0" parent="WIyWlLk6GJQsqaUBKTNV-1">
          <mxGeometry x="60" y="-890" width="190" height="160" as="geometry" />
        </mxCell>
        <mxCell id="66l2fMA6IXhAfc1q5ibX-3" value="SUCURSAL" style="swimlane;fontStyle=0;childLayout=stackLayout;horizontal=1;startSize=30;horizontalStack=0;resizeParent=1;resizeParentMax=0;resizeLast=0;collapsible=1;marginBottom=0;whiteSpace=wrap;html=1;" vertex="1" parent="66l2fMA6IXhAfc1q5ibX-2">
          <mxGeometry width="190" height="70" as="geometry" />
        </mxCell>
        <mxCell id="66l2fMA6IXhAfc1q5ibX-4" value="&amp;nbsp; &amp;nbsp;PK&amp;nbsp; &amp;nbsp; &amp;nbsp;id&amp;nbsp; &amp;nbsp; &amp;nbsp; &amp;nbsp; &amp;nbsp; &amp;nbsp; &amp;nbsp; &amp;nbsp; &amp;nbsp; &amp;nbsp; &amp;nbsp; &amp;nbsp; &amp;nbsp; &amp;nbsp; &amp;nbsp; &amp;nbsp; &amp;nbsp; &amp;nbsp; &amp;nbsp; &amp;nbsp;" style="text;html=1;strokeColor=none;fillColor=none;align=center;verticalAlign=middle;whiteSpace=wrap;rounded=0;" vertex="1" parent="66l2fMA6IXhAfc1q5ibX-3">
          <mxGeometry y="30" width="190" height="40" as="geometry" />
        </mxCell>
        <mxCell id="66l2fMA6IXhAfc1q5ibX-5" value="nombre&amp;nbsp; &amp;nbsp; &amp;nbsp; &amp;nbsp; &amp;nbsp; &amp;nbsp; &amp;nbsp; &amp;nbsp;&amp;nbsp;" style="text;html=1;strokeColor=none;fillColor=none;align=center;verticalAlign=middle;whiteSpace=wrap;rounded=0;shadow=1;" vertex="1" parent="66l2fMA6IXhAfc1q5ibX-2">
          <mxGeometry y="79.99766233766233" width="190" height="35.324675324675326" as="geometry" />
        </mxCell>
        <mxCell id="66l2fMA6IXhAfc1q5ibX-6" value="" style="endArrow=none;html=1;rounded=0;exitX=0.207;exitY=1.033;exitDx=0;exitDy=0;exitPerimeter=0;" edge="1" parent="66l2fMA6IXhAfc1q5ibX-2">
          <mxGeometry width="50" height="50" relative="1" as="geometry">
            <mxPoint x="39.33000000000004" y="161.02857142857133" as="sourcePoint" />
            <mxPoint x="40.714285714285715" y="31.16883116883117" as="targetPoint" />
          </mxGeometry>
        </mxCell>
        <mxCell id="66l2fMA6IXhAfc1q5ibX-7" value="direccion&amp;nbsp; &amp;nbsp; &amp;nbsp; &amp;nbsp; &amp;nbsp; &amp;nbsp; &amp;nbsp; &amp;nbsp;&amp;nbsp;" style="text;html=1;strokeColor=none;fillColor=none;align=center;verticalAlign=middle;whiteSpace=wrap;rounded=0;" vertex="1" parent="WIyWlLk6GJQsqaUBKTNV-1">
          <mxGeometry x="60" y="-770" width="190" height="40" as="geometry" />
        </mxCell>
        <mxCell id="66l2fMA6IXhAfc1q5ibX-8" value="" style="group;strokeColor=default;" vertex="1" connectable="0" parent="WIyWlLk6GJQsqaUBKTNV-1">
          <mxGeometry x="60" y="-680" width="190" height="160" as="geometry" />
        </mxCell>
        <mxCell id="66l2fMA6IXhAfc1q5ibX-9" value="CLIENTE" style="swimlane;fontStyle=0;childLayout=stackLayout;horizontal=1;startSize=30;horizontalStack=0;resizeParent=1;resizeParentMax=0;resizeLast=0;collapsible=1;marginBottom=0;whiteSpace=wrap;html=1;" vertex="1" parent="66l2fMA6IXhAfc1q5ibX-8">
          <mxGeometry width="190" height="70" as="geometry" />
        </mxCell>
        <mxCell id="66l2fMA6IXhAfc1q5ibX-10" value="&amp;nbsp; &amp;nbsp;PK&amp;nbsp; &amp;nbsp; &amp;nbsp;id&amp;nbsp; &amp;nbsp; &amp;nbsp; &amp;nbsp; &amp;nbsp; &amp;nbsp; &amp;nbsp; &amp;nbsp; &amp;nbsp; &amp;nbsp; &amp;nbsp; &amp;nbsp; &amp;nbsp; &amp;nbsp; &amp;nbsp; &amp;nbsp; &amp;nbsp; &amp;nbsp; &amp;nbsp; &amp;nbsp;" style="text;html=1;strokeColor=none;fillColor=none;align=center;verticalAlign=middle;whiteSpace=wrap;rounded=0;" vertex="1" parent="66l2fMA6IXhAfc1q5ibX-9">
          <mxGeometry y="30" width="190" height="40" as="geometry" />
        </mxCell>
        <mxCell id="66l2fMA6IXhAfc1q5ibX-11" value="nombre&amp;nbsp; &amp;nbsp; &amp;nbsp; &amp;nbsp; &amp;nbsp; &amp;nbsp; &amp;nbsp; &amp;nbsp;&amp;nbsp;" style="text;html=1;strokeColor=none;fillColor=none;align=center;verticalAlign=middle;whiteSpace=wrap;rounded=0;shadow=1;" vertex="1" parent="66l2fMA6IXhAfc1q5ibX-8">
          <mxGeometry y="79.99766233766233" width="190" height="35.324675324675326" as="geometry" />
        </mxCell>
        <mxCell id="66l2fMA6IXhAfc1q5ibX-12" value="" style="endArrow=none;html=1;rounded=0;exitX=0.207;exitY=1.033;exitDx=0;exitDy=0;exitPerimeter=0;" edge="1" parent="66l2fMA6IXhAfc1q5ibX-8">
          <mxGeometry width="50" height="50" relative="1" as="geometry">
            <mxPoint x="39.33000000000004" y="161.02857142857133" as="sourcePoint" />
            <mxPoint x="40.714285714285715" y="31.16883116883117" as="targetPoint" />
          </mxGeometry>
        </mxCell>
        <mxCell id="66l2fMA6IXhAfc1q5ibX-13" value="telefono&amp;nbsp; &amp;nbsp; &amp;nbsp; &amp;nbsp; &amp;nbsp; &amp;nbsp; &amp;nbsp;" style="text;html=1;strokeColor=none;fillColor=none;align=center;verticalAlign=middle;whiteSpace=wrap;rounded=0;" vertex="1" parent="WIyWlLk6GJQsqaUBKTNV-1">
          <mxGeometry x="60" y="-560" width="190" height="40" as="geometry" />
        </mxCell>
        <mxCell id="66l2fMA6IXhAfc1q5ibX-14" value="" style="group;strokeColor=default;" vertex="1" connectable="0" parent="WIyWlLk6GJQsqaUBKTNV-1">
          <mxGeometry x="440" y="-740" width="200" height="240" as="geometry" />
        </mxCell>
        <mxCell id="66l2fMA6IXhAfc1q5ibX-15" value="STOCK" style="swimlane;fontStyle=0;childLayout=stackLayout;horizontal=1;startSize=30;horizontalStack=0;resizeParent=1;resizeParentMax=0;resizeLast=0;collapsible=1;marginBottom=0;whiteSpace=wrap;html=1;" vertex="1" parent="66l2fMA6IXhAfc1q5ibX-14">
          <mxGeometry width="200" height="73.03999999999999" as="geometry" />
        </mxCell>
        <mxCell id="66l2fMA6IXhAfc1q5ibX-16" value="&amp;nbsp; &amp;nbsp;PK&amp;nbsp; &amp;nbsp; &amp;nbsp;id&amp;nbsp; &amp;nbsp; &amp;nbsp; &amp;nbsp; &amp;nbsp; &amp;nbsp; &amp;nbsp; &amp;nbsp; &amp;nbsp; &amp;nbsp; &amp;nbsp; &amp;nbsp; &amp;nbsp; &amp;nbsp; &amp;nbsp; &amp;nbsp; &amp;nbsp; &amp;nbsp; &amp;nbsp; &amp;nbsp;" style="text;html=1;strokeColor=none;fillColor=none;align=center;verticalAlign=middle;whiteSpace=wrap;rounded=0;" vertex="1" parent="66l2fMA6IXhAfc1q5ibX-15">
          <mxGeometry y="30" width="200" height="43.04" as="geometry" />
        </mxCell>
        <mxCell id="66l2fMA6IXhAfc1q5ibX-17" value="&amp;nbsp; &amp;nbsp; &amp;nbsp; &amp;nbsp; &amp;nbsp; &amp;nbsp; &amp;nbsp;sucursal_id&amp;nbsp; &amp;nbsp; &amp;nbsp; &amp;nbsp; &amp;nbsp; &amp;nbsp; &amp;nbsp; &amp;nbsp; &amp;nbsp; &amp;nbsp; &amp;nbsp; &amp;nbsp; &amp;nbsp;" style="text;html=1;strokeColor=none;fillColor=none;align=center;verticalAlign=middle;whiteSpace=wrap;rounded=0;shadow=1;" vertex="1" parent="66l2fMA6IXhAfc1q5ibX-14">
          <mxGeometry y="75.32513100934153" width="190" height="28.50763271815904" as="geometry" />
        </mxCell>
        <mxCell id="66l2fMA6IXhAfc1q5ibX-18" value="" style="endArrow=none;html=1;rounded=0;" edge="1" parent="66l2fMA6IXhAfc1q5ibX-14">
          <mxGeometry width="50" height="50" relative="1" as="geometry">
            <mxPoint x="41" y="240" as="sourcePoint" />
            <mxPoint x="40.714285714285715" y="25.15379357484621" as="targetPoint" />
          </mxGeometry>
        </mxCell>
        <mxCell id="66l2fMA6IXhAfc1q5ibX-20" value="cantidad&amp;nbsp; &amp;nbsp; &amp;nbsp; &amp;nbsp; &amp;nbsp; &amp;nbsp; &amp;nbsp; &amp;nbsp; &amp;nbsp; &amp;nbsp; &amp;nbsp; &amp;nbsp; &amp;nbsp; &amp;nbsp; &amp;nbsp;&amp;nbsp;" style="text;html=1;strokeColor=none;fillColor=none;align=center;verticalAlign=middle;whiteSpace=wrap;rounded=0;" vertex="1" parent="66l2fMA6IXhAfc1q5ibX-14">
          <mxGeometry x="50" y="142.2212865497076" width="150" height="43.040935672514614" as="geometry" />
        </mxCell>
        <mxCell id="66l2fMA6IXhAfc1q5ibX-22" value="FK1" style="text;html=1;strokeColor=none;fillColor=none;align=center;verticalAlign=middle;whiteSpace=wrap;rounded=0;" vertex="1" parent="66l2fMA6IXhAfc1q5ibX-14">
          <mxGeometry x="-10" y="77.1644444444444" width="60" height="26.666666666666664" as="geometry" />
        </mxCell>
        <mxCell id="66l2fMA6IXhAfc1q5ibX-24" value="producto_id&amp;nbsp; &amp;nbsp; &amp;nbsp; &amp;nbsp; &amp;nbsp; &amp;nbsp; &amp;nbsp; &amp;nbsp; &amp;nbsp; &amp;nbsp; &amp;nbsp; &amp;nbsp;" style="text;html=1;strokeColor=none;fillColor=none;align=center;verticalAlign=middle;whiteSpace=wrap;rounded=0;" vertex="1" parent="66l2fMA6IXhAfc1q5ibX-14">
          <mxGeometry x="40" y="106.66666666666666" width="160" height="35.55555555555556" as="geometry" />
        </mxCell>
        <mxCell id="66l2fMA6IXhAfc1q5ibX-35" value="FK2" style="text;html=1;strokeColor=none;fillColor=none;align=center;verticalAlign=middle;whiteSpace=wrap;rounded=0;" vertex="1" parent="66l2fMA6IXhAfc1q5ibX-14">
          <mxGeometry x="-10" y="111.1111111111111" width="60" height="26.666666666666664" as="geometry" />
        </mxCell>
        <mxCell id="66l2fMA6IXhAfc1q5ibX-39" value="" style="group;strokeColor=default;" vertex="1" connectable="0" parent="WIyWlLk6GJQsqaUBKTNV-1">
          <mxGeometry x="440" y="-460" width="200" height="240" as="geometry" />
        </mxCell>
        <mxCell id="66l2fMA6IXhAfc1q5ibX-40" value="ITEM" style="swimlane;fontStyle=0;childLayout=stackLayout;horizontal=1;startSize=30;horizontalStack=0;resizeParent=1;resizeParentMax=0;resizeLast=0;collapsible=1;marginBottom=0;whiteSpace=wrap;html=1;" vertex="1" parent="66l2fMA6IXhAfc1q5ibX-39">
          <mxGeometry width="200" height="73.03999999999999" as="geometry" />
        </mxCell>
        <mxCell id="66l2fMA6IXhAfc1q5ibX-41" value="&amp;nbsp; &amp;nbsp;PK&amp;nbsp; &amp;nbsp; &amp;nbsp;id&amp;nbsp; &amp;nbsp; &amp;nbsp; &amp;nbsp; &amp;nbsp; &amp;nbsp; &amp;nbsp; &amp;nbsp; &amp;nbsp; &amp;nbsp; &amp;nbsp; &amp;nbsp; &amp;nbsp; &amp;nbsp; &amp;nbsp; &amp;nbsp; &amp;nbsp; &amp;nbsp; &amp;nbsp; &amp;nbsp;" style="text;html=1;strokeColor=none;fillColor=none;align=center;verticalAlign=middle;whiteSpace=wrap;rounded=0;" vertex="1" parent="66l2fMA6IXhAfc1q5ibX-40">
          <mxGeometry y="30" width="200" height="43.04" as="geometry" />
        </mxCell>
        <mxCell id="66l2fMA6IXhAfc1q5ibX-42" value="orden_id&amp;nbsp; &amp;nbsp; &amp;nbsp; &amp;nbsp; &amp;nbsp; &amp;nbsp; &amp;nbsp;&amp;nbsp;" style="text;html=1;strokeColor=none;fillColor=none;align=center;verticalAlign=middle;whiteSpace=wrap;rounded=0;shadow=1;" vertex="1" parent="66l2fMA6IXhAfc1q5ibX-39">
          <mxGeometry y="75.32513100934153" width="190" height="28.50763271815904" as="geometry" />
        </mxCell>
        <mxCell id="66l2fMA6IXhAfc1q5ibX-43" value="" style="endArrow=none;html=1;rounded=0;" edge="1" parent="66l2fMA6IXhAfc1q5ibX-39">
          <mxGeometry width="50" height="50" relative="1" as="geometry">
            <mxPoint x="41" y="240" as="sourcePoint" />
            <mxPoint x="40.714285714285715" y="25.15379357484621" as="targetPoint" />
          </mxGeometry>
        </mxCell>
        <mxCell id="66l2fMA6IXhAfc1q5ibX-44" value=" cantidad&amp;nbsp; &amp;nbsp; &amp;nbsp; &amp;nbsp; &amp;nbsp; &amp;nbsp; &amp;nbsp; &amp;nbsp; &amp;nbsp; &amp;nbsp; &amp;nbsp; &amp;nbsp; &amp;nbsp; &amp;nbsp; &amp;nbsp;&amp;nbsp;" style="text;html=1;strokeColor=none;fillColor=none;align=center;verticalAlign=middle;whiteSpace=wrap;rounded=0;" vertex="1" parent="66l2fMA6IXhAfc1q5ibX-39">
          <mxGeometry x="45" y="142.2212865497076" width="150" height="43.040935672514614" as="geometry" />
        </mxCell>
        <mxCell id="66l2fMA6IXhAfc1q5ibX-45" value="monto_venta" style="text;html=1;strokeColor=none;fillColor=none;align=center;verticalAlign=middle;whiteSpace=wrap;rounded=0;" vertex="1" parent="66l2fMA6IXhAfc1q5ibX-39">
          <mxGeometry y="177.77777777777777" width="160" height="35.55555555555556" as="geometry" />
        </mxCell>
        <mxCell id="66l2fMA6IXhAfc1q5ibX-46" value="FK1" style="text;html=1;strokeColor=none;fillColor=none;align=center;verticalAlign=middle;whiteSpace=wrap;rounded=0;" vertex="1" parent="66l2fMA6IXhAfc1q5ibX-39">
          <mxGeometry x="-10" y="77.1644444444444" width="60" height="26.666666666666664" as="geometry" />
        </mxCell>
        <mxCell id="66l2fMA6IXhAfc1q5ibX-47" value="producto_id&amp;nbsp; &amp;nbsp; &amp;nbsp; &amp;nbsp; &amp;nbsp; &amp;nbsp; &amp;nbsp; &amp;nbsp; &amp;nbsp; &amp;nbsp; &amp;nbsp; &amp;nbsp;&amp;nbsp;" style="text;html=1;strokeColor=none;fillColor=none;align=center;verticalAlign=middle;whiteSpace=wrap;rounded=0;" vertex="1" parent="66l2fMA6IXhAfc1q5ibX-39">
          <mxGeometry x="40" y="106.66666666666666" width="160" height="35.55555555555556" as="geometry" />
        </mxCell>
        <mxCell id="66l2fMA6IXhAfc1q5ibX-48" value="FK2" style="text;html=1;strokeColor=none;fillColor=none;align=center;verticalAlign=middle;whiteSpace=wrap;rounded=0;" vertex="1" parent="66l2fMA6IXhAfc1q5ibX-39">
          <mxGeometry x="-10" y="111.1111111111111" width="60" height="26.666666666666664" as="geometry" />
        </mxCell>
        <mxCell id="66l2fMA6IXhAfc1q5ibX-49" value="" style="group;strokeColor=default;" vertex="1" connectable="0" parent="WIyWlLk6GJQsqaUBKTNV-1">
          <mxGeometry x="60" y="-480" width="200" height="240" as="geometry" />
        </mxCell>
        <mxCell id="66l2fMA6IXhAfc1q5ibX-50" value="ORDEN" style="swimlane;fontStyle=0;childLayout=stackLayout;horizontal=1;startSize=30;horizontalStack=0;resizeParent=1;resizeParentMax=0;resizeLast=0;collapsible=1;marginBottom=0;whiteSpace=wrap;html=1;" vertex="1" parent="66l2fMA6IXhAfc1q5ibX-49">
          <mxGeometry width="200" height="73.03999999999999" as="geometry" />
        </mxCell>
        <mxCell id="66l2fMA6IXhAfc1q5ibX-51" value="&amp;nbsp; &amp;nbsp;PK&amp;nbsp; &amp;nbsp; &amp;nbsp;id&amp;nbsp; &amp;nbsp; &amp;nbsp; &amp;nbsp; &amp;nbsp; &amp;nbsp; &amp;nbsp; &amp;nbsp; &amp;nbsp; &amp;nbsp; &amp;nbsp; &amp;nbsp; &amp;nbsp; &amp;nbsp; &amp;nbsp; &amp;nbsp; &amp;nbsp; &amp;nbsp; &amp;nbsp; &amp;nbsp;" style="text;html=1;strokeColor=none;fillColor=none;align=center;verticalAlign=middle;whiteSpace=wrap;rounded=0;" vertex="1" parent="66l2fMA6IXhAfc1q5ibX-50">
          <mxGeometry y="30" width="200" height="43.04" as="geometry" />
        </mxCell>
        <mxCell id="66l2fMA6IXhAfc1q5ibX-52" value="cliente_id&amp;nbsp; &amp;nbsp; &amp;nbsp; &amp;nbsp; &amp;nbsp; &amp;nbsp; &amp;nbsp;&amp;nbsp;" style="text;html=1;strokeColor=none;fillColor=none;align=center;verticalAlign=middle;whiteSpace=wrap;rounded=0;shadow=1;" vertex="1" parent="66l2fMA6IXhAfc1q5ibX-49">
          <mxGeometry y="75.32513100934153" width="190" height="28.50763271815904" as="geometry" />
        </mxCell>
        <mxCell id="66l2fMA6IXhAfc1q5ibX-53" value="" style="endArrow=none;html=1;rounded=0;" edge="1" parent="66l2fMA6IXhAfc1q5ibX-49">
          <mxGeometry width="50" height="50" relative="1" as="geometry">
            <mxPoint x="41" y="240" as="sourcePoint" />
            <mxPoint x="40.714285714285715" y="25.15379357484621" as="targetPoint" />
          </mxGeometry>
        </mxCell>
        <mxCell id="66l2fMA6IXhAfc1q5ibX-54" value="fecha&amp;nbsp; &amp;nbsp; &amp;nbsp; &amp;nbsp; &amp;nbsp; &amp;nbsp; &amp;nbsp; &amp;nbsp; &amp;nbsp; &amp;nbsp; &amp;nbsp; &amp;nbsp; &amp;nbsp; &amp;nbsp; &amp;nbsp; &amp;nbsp; &amp;nbsp; &amp;nbsp;" style="text;html=1;strokeColor=none;fillColor=none;align=center;verticalAlign=middle;whiteSpace=wrap;rounded=0;" vertex="1" parent="66l2fMA6IXhAfc1q5ibX-49">
          <mxGeometry x="50" y="142.2212865497076" width="150" height="43.040935672514614" as="geometry" />
        </mxCell>
        <mxCell id="66l2fMA6IXhAfc1q5ibX-55" value="total&amp;nbsp; &amp;nbsp; &amp;nbsp; &amp;nbsp; &amp;nbsp; &amp;nbsp;" style="text;html=1;strokeColor=none;fillColor=none;align=center;verticalAlign=middle;whiteSpace=wrap;rounded=0;" vertex="1" parent="66l2fMA6IXhAfc1q5ibX-49">
          <mxGeometry y="177.77777777777777" width="160" height="35.55555555555556" as="geometry" />
        </mxCell>
        <mxCell id="66l2fMA6IXhAfc1q5ibX-56" value="FK1" style="text;html=1;strokeColor=none;fillColor=none;align=center;verticalAlign=middle;whiteSpace=wrap;rounded=0;" vertex="1" parent="66l2fMA6IXhAfc1q5ibX-49">
          <mxGeometry x="-10" y="77.1644444444444" width="60" height="26.666666666666664" as="geometry" />
        </mxCell>
        <mxCell id="66l2fMA6IXhAfc1q5ibX-57" value="sucursal_id&amp;nbsp; &amp;nbsp; &amp;nbsp; &amp;nbsp; &amp;nbsp; &amp;nbsp; &amp;nbsp; &amp;nbsp; &amp;nbsp; &amp;nbsp; &amp;nbsp; &amp;nbsp; &amp;nbsp;" style="text;html=1;strokeColor=none;fillColor=none;align=center;verticalAlign=middle;whiteSpace=wrap;rounded=0;" vertex="1" parent="66l2fMA6IXhAfc1q5ibX-49">
          <mxGeometry x="40" y="106.66666666666666" width="160" height="35.55555555555556" as="geometry" />
        </mxCell>
        <mxCell id="66l2fMA6IXhAfc1q5ibX-58" value="FK2" style="text;html=1;strokeColor=none;fillColor=none;align=center;verticalAlign=middle;whiteSpace=wrap;rounded=0;" vertex="1" parent="66l2fMA6IXhAfc1q5ibX-49">
          <mxGeometry x="-10" y="111.1111111111111" width="60" height="26.666666666666664" as="geometry" />
        </mxCell>
        <mxCell id="66l2fMA6IXhAfc1q5ibX-59" value="" style="edgeStyle=elbowEdgeStyle;elbow=horizontal;endArrow=classic;html=1;curved=0;rounded=0;endSize=8;startSize=8;entryX=1;entryY=0.5;entryDx=0;entryDy=0;" edge="1" parent="WIyWlLk6GJQsqaUBKTNV-1" target="pIUg82QrMssPbng2q3d7-8">
          <mxGeometry width="50" height="50" relative="1" as="geometry">
            <mxPoint x="440" y="-864" as="sourcePoint" />
            <mxPoint x="410" y="-950" as="targetPoint" />
          </mxGeometry>
        </mxCell>
        <mxCell id="66l2fMA6IXhAfc1q5ibX-61" value="" style="edgeStyle=elbowEdgeStyle;elbow=horizontal;endArrow=classic;html=1;curved=0;rounded=0;endSize=8;startSize=8;entryX=1;entryY=0.5;entryDx=0;entryDy=0;" edge="1" parent="WIyWlLk6GJQsqaUBKTNV-1" source="66l2fMA6IXhAfc1q5ibX-22" target="66l2fMA6IXhAfc1q5ibX-4">
          <mxGeometry width="50" height="50" relative="1" as="geometry">
            <mxPoint x="360" y="-720" as="sourcePoint" />
            <mxPoint x="410" y="-770" as="targetPoint" />
          </mxGeometry>
        </mxCell>
        <mxCell id="66l2fMA6IXhAfc1q5ibX-71" value="" style="edgeStyle=elbowEdgeStyle;elbow=horizontal;endArrow=classic;html=1;curved=0;rounded=0;endSize=8;startSize=8;exitX=0;exitY=0.5;exitDx=0;exitDy=0;" edge="1" parent="WIyWlLk6GJQsqaUBKTNV-1" source="66l2fMA6IXhAfc1q5ibX-35">
          <mxGeometry width="50" height="50" relative="1" as="geometry">
            <mxPoint x="430" y="-599.7655555555557" as="sourcePoint" />
            <mxPoint x="440" y="-1000" as="targetPoint" />
            <Array as="points">
              <mxPoint x="400" y="-804.21" />
            </Array>
          </mxGeometry>
        </mxCell>
        <mxCell id="66l2fMA6IXhAfc1q5ibX-72" value="" style="edgeStyle=elbowEdgeStyle;elbow=horizontal;endArrow=classic;html=1;curved=0;rounded=0;endSize=8;startSize=8;entryX=0;entryY=0.5;entryDx=0;entryDy=0;" edge="1" parent="WIyWlLk6GJQsqaUBKTNV-1" target="66l2fMA6IXhAfc1q5ibX-10">
          <mxGeometry width="50" height="50" relative="1" as="geometry">
            <mxPoint x="60" y="-390" as="sourcePoint" />
            <mxPoint x="310" y="-440" as="targetPoint" />
            <Array as="points">
              <mxPoint x="20" y="-550" />
            </Array>
          </mxGeometry>
        </mxCell>
        <mxCell id="66l2fMA6IXhAfc1q5ibX-73" value="" style="edgeStyle=elbowEdgeStyle;elbow=horizontal;endArrow=classic;html=1;curved=0;rounded=0;endSize=8;startSize=8;entryX=0;entryY=0.5;entryDx=0;entryDy=0;" edge="1" parent="WIyWlLk6GJQsqaUBKTNV-1" target="66l2fMA6IXhAfc1q5ibX-4">
          <mxGeometry width="50" height="50" relative="1" as="geometry">
            <mxPoint x="60" y="-360" as="sourcePoint" />
            <mxPoint x="70" y="-620" as="targetPoint" />
            <Array as="points">
              <mxPoint x="30" y="-540" />
            </Array>
          </mxGeometry>
        </mxCell>
        <mxCell id="66l2fMA6IXhAfc1q5ibX-75" value="" style="edgeStyle=elbowEdgeStyle;elbow=horizontal;endArrow=classic;html=1;curved=0;rounded=0;endSize=8;startSize=8;entryX=1;entryY=0.5;entryDx=0;entryDy=0;" edge="1" parent="WIyWlLk6GJQsqaUBKTNV-1" target="66l2fMA6IXhAfc1q5ibX-51">
          <mxGeometry width="50" height="50" relative="1" as="geometry">
            <mxPoint x="440" y="-370" as="sourcePoint" />
            <mxPoint x="370" y="-420" as="targetPoint" />
          </mxGeometry>
        </mxCell>
        <mxCell id="66l2fMA6IXhAfc1q5ibX-76" value="" style="edgeStyle=elbowEdgeStyle;elbow=vertical;endArrow=classic;html=1;curved=0;rounded=0;endSize=8;startSize=8;exitX=0;exitY=0.5;exitDx=0;exitDy=0;" edge="1" parent="WIyWlLk6GJQsqaUBKTNV-1" source="66l2fMA6IXhAfc1q5ibX-48" target="pIUg82QrMssPbng2q3d7-11">
          <mxGeometry width="50" height="50" relative="1" as="geometry">
            <mxPoint x="680" y="-340" as="sourcePoint" />
            <mxPoint x="680" y="-1021" as="targetPoint" />
            <Array as="points">
              <mxPoint x="370" y="-670" />
              <mxPoint x="700" y="-1016" />
            </Array>
          </mxGeometry>
        </mxCell>
      </root>
    </mxGraphModel>
  </diagram>
</mxfile>
